<?xml version="1.0" encoding="UTF-8"?>
<svg version="1.1" xmlns="http://www.w3.org/2000/svg" width="1024" height="1024">
<path d="M0 0 C1.65362053 3.73862033 3.00424757 7.01699027 4 11 C27.265 11.495 27.265 11.495 51 12 C51.33 9.03 51.66 6.06 52 3 C52.66 2.01 53.32 1.02 54 0 C57 -0.375 57 -0.375 60 0 C62.2802212 3.4203318 62.21820335 3.94210942 61.5625 7.8125 C58.11411249 24.14923581 47.70728856 35.83416916 35 46 C35.58394531 46.62261719 35.58394531 46.62261719 36.1796875 47.2578125 C40.63625051 52.16619296 44.45378169 57.36656914 48.23144531 62.79785156 C50.65990326 66.24998094 53.16744348 69.34771719 56.125 72.375 C65.50202098 82.47773748 69.52958024 95.25499776 69.2734375 108.7578125 C68.51364124 125.46580749 58.61396546 137.14209739 47 148 C47.556875 148.35191406 48.11375 148.70382812 48.6875 149.06640625 C53.5911324 152.23885762 57.99996771 155.59873534 62.2734375 159.58203125 C67.26073127 163.67793089 75.93690704 162.77430838 82.11767578 162.33886719 C84.83737185 161.84925134 86.06732696 160.77632203 87.75 158.625 C88.5087865 157.42216481 89.26010387 156.21454648 90 155 C93.32710516 152.75195598 95.6695538 152.91670577 99.5 153.5625 C104.66856832 154.89549183 107.28291738 157.54702483 110.3125 161.875 C111.53603946 165.65684925 111.70571707 169.1422475 110.27734375 172.90234375 C108.18652617 176.9062171 106.23981978 179.43311008 102 181 C97.64101487 181.72649752 93.77984257 181.99093938 89.83203125 179.79296875 C86.55059653 177.12046006 84.7487894 175.25238424 84 171 C82.87722656 171.03480469 81.75445312 171.06960938 80.59765625 171.10546875 C67.5505569 171.39848182 60.50916484 170.39991018 50.45703125 161.61328125 C45.39430447 157.52710517 39.42417006 154.72774345 33.64135742 151.80664062 C32.79806885 151.36900391 31.95478027 150.93136719 31.0859375 150.48046875 C30.3232959 150.09785889 29.5606543 149.71524902 28.77490234 149.32104492 C27 148 27 148 26.12353516 145.9855957 C26 144 26 144 27.9375 141.75 C28.618125 141.1725 29.29875 140.595 30 140 C30.7425 140.350625 31.485 140.70125 32.25 141.0625 C35.31564186 142.10760518 36.04865806 142.11891535 39 141 C41.45353446 139.24383856 41.45353446 139.24383856 43.875 137 C44.69742188 136.278125 45.51984375 135.55625 46.3671875 134.8125 C49.87585423 131.21814386 49.87585423 131.21814386 55 123 C36.52 123 18.04 123 -1 123 C5.39216705 132.23313019 11.603371 140.69811192 19 149 C19.67804688 149.763125 20.35609375 150.52625 21.0546875 151.3125 C25.52623324 156.06235772 30.51612255 159.4104685 35.9765625 162.9453125 C48.26977222 171.29961264 57.98044248 182.67014014 61.5625 197.296875 C62.0789638 200.24502254 62.33164538 202.3562178 60.9375 205.0625 C58.08347337 206.44348063 56.0021294 205.73385385 53 205 C52.01 200.545 52.01 200.545 51 196 C35.16 196 19.32 196 3 196 C2.34 198.97 1.68 201.94 1 205 C0 206 0 206 -2.375 206.3125 C-5 206 -5 206 -6.69140625 204.26171875 C-8.70120313 200.78806982 -7.83353604 198.60027727 -6.90625 194.8359375 C-3.33561005 183.66229698 2.87047645 176.15319028 11 168 C11.89589844 167.06027344 12.79179687 166.12054687 13.71484375 165.15234375 C16 163 16 163 18 163 C18 162.34 18 161.68 18 161 C17.16855469 160.68482422 17.16855469 160.68482422 16.3203125 160.36328125 C13.18373244 158.52040846 11.14722351 155.96713682 8.875 153.1875 C8.39780518 152.61 7.92061035 152.0325 7.42895508 151.4375 C6.43599854 150.22911072 5.44718963 149.0173022 4.46240234 147.80224609 C3.51830024 146.63874664 2.56848728 145.47984731 1.61181641 144.32666016 C-9.8606912 130.48369627 -16.48417007 116.29239608 -15 98 C-11.98081355 83.55593756 -2.86999433 70.65067807 9 62 C9.66 62 10.32 62 11 62 C11 61.34 11 60.68 11 60 C10.34 59.79375 9.68 59.5875 9 59.375 C3.86396723 57.02098498 -0.61379772 53.80626358 -4.0625 49.3125 C-7.46551225 45.25084022 -12.05579434 43.9148262 -17.19140625 43.4609375 C-18.64771019 43.40672041 -20.1051915 43.37854655 -21.5625 43.375 C-22.32046875 43.37193848 -23.0784375 43.36887695 -23.859375 43.36572266 C-27.09512092 43.46948676 -29.43802906 43.60258409 -32.12109375 45.5 C-33.51798433 47.34922896 -33.51798433 47.34922896 -34.6953125 49.29296875 C-36.82707664 52.0821332 -39.32632429 52.52657337 -42.69140625 53.04296875 C-46.81098068 52.96629308 -49.76992083 51.47906753 -53 49 C-55.95455569 45.74998874 -57.23359298 43.26848514 -57.4375 38.9375 C-56.78562697 33.07064274 -54.38530156 29.83713886 -50 26 C-46.27400457 24.75800152 -42.87020783 24.46491445 -39 25 C-35.12715775 27.04602987 -32.2170058 29.18182335 -30 33 C-30 33.99 -30 34.98 -30 36 C-29.40574219 35.97905273 -28.81148437 35.95810547 -28.19921875 35.93652344 C-25.46632295 35.85258146 -22.73369943 35.80109719 -20 35.75 C-19.06542969 35.71648437 -18.13085938 35.68296875 -17.16796875 35.6484375 C-9.82153366 35.54569016 -4.46824897 36.83738216 1.0390625 41.859375 C1.56242187 42.48328125 2.08578125 43.1071875 2.625 43.75 C6.03015775 47.37093013 9.73754358 49.80559886 14.0625 52.1875 C14.67061523 52.52273682 15.27873047 52.85797363 15.90527344 53.20336914 C16.49727539 53.52813232 17.08927734 53.85289551 17.69921875 54.1875 C21.45721795 56.25106406 24.78157519 58.164721 28 61 C28.5625 63.6875 28.5625 63.6875 28 66 C26 68 26 68 23.5625 68.125 C22.716875 68.08375 21.87125 68.0425 21 68 C15.27466106 68 10.9826935 73.2225428 7 77 C3.93948847 80.75899064 1.17114463 84.65771073 -1 89 C17.48 89 35.96 89 55 89 C50.36587469 80.93975067 50.36587469 80.93975067 44.8125 74.3125 C40.98956004 70.24581555 37.77065572 65.98478058 34.5625 61.4375 C28.85868872 53.44898272 22.27917561 47.44715431 14.4375 41.5625 C2.4329943 32.28917814 -5.36039698 20.19356732 -8.1015625 5.20703125 C-8 3 -8 3 -6.69140625 1.2109375 C-4.40363036 -0.4269621 -2.74614801 -0.22266065 0 0 Z M8 20 C11.6910543 27.38210859 18.42903406 35.38840847 26 39 C30.66774901 38.05424693 33.76647608 34.80764112 37.125 31.625 C37.64964844 31.14289063 38.17429687 30.66078125 38.71484375 30.1640625 C41.43453301 27.63027605 43.99298061 25.14202346 46 22 C46 21.34 46 20.68 46 20 C33.46 20 20.92 20 8 20 Z M-5 97 C-5.79189958 100.1675983 -6.1358649 102.32744777 -6.125 105.5 C-6.12757813 106.2528125 -6.13015625 107.005625 -6.1328125 107.78125 C-6.04878742 110.32656368 -6.04878742 110.32656368 -5 114 C16.12 114 37.24 114 59 114 C59.79189958 110.8324017 60.1358649 108.67255223 60.125 105.5 C60.12757813 104.7471875 60.13015625 103.994375 60.1328125 103.21875 C60.04878742 100.67343632 60.04878742 100.67343632 59 97 C37.88 97 16.76 97 -5 97 Z M19.25 173 C18.71084961 173.49677246 18.17169922 173.99354492 17.61621094 174.50537109 C13.57947675 178.29697429 9.8976566 182.24682646 7 187 C7 187.33 7 187.66 7 188 C20.2 188 33.4 188 47 188 C43.80744612 182.41303071 42.10904518 179.76054471 37.5625 175.75 C36.63566406 174.91984375 35.70882812 174.0896875 34.75390625 173.234375 C27.80317219 167.59491418 25.7506039 166.97048292 19.25 173 Z " fill="#FFFFFF" transform="translate(167,409)"/>
<path d="M0 0 C31.4783715 0 31.4783715 0 40.49609375 8.22265625 C48.13721327 17.25307022 47.89045694 29.85436445 47 41 C45.36454943 49.44325989 41.14745778 56.29555339 34.1328125 61.34375 C23.27489574 67.86782016 13.74728318 65 0 65 C0 43.55 0 22.1 0 0 Z M9 8 C8.97473162 14.96003447 8.95716778 21.9200572 8.94506836 28.88012695 C8.94002659 31.24992312 8.93319335 33.61971615 8.92456055 35.98950195 C8.9124881 39.38754039 8.90677029 42.78553785 8.90234375 46.18359375 C8.89718246 47.25024765 8.89202118 48.31690155 8.88670349 49.4158783 C8.88662796 50.39681961 8.88655243 51.37776093 8.88647461 52.38842773 C8.884254 53.25668686 8.88203339 54.12494598 8.87974548 55.01951599 C8.78045333 57.00143681 8.78045333 57.00143681 10 58 C16.58386835 58.679288 23.14346928 58.26447361 29 55 C34.07848433 50.60963092 37.49208081 45.90126623 38.20141602 39.05639648 C38.30406686 36.90779063 38.32891046 34.77595925 38.3125 32.625 C38.30758545 31.87057617 38.3026709 31.11615234 38.29760742 30.33886719 C38.15127624 23.41402535 37.24682641 18.66071549 32.625 13.1875 C27.16845459 8.64037882 22.93452618 6.85392679 15.875 6.875 C15.00617187 6.87242187 14.13734375 6.86984375 13.2421875 6.8671875 C10.96280551 6.85462066 10.96280551 6.85462066 9 8 Z " fill="#FFFFFF" transform="translate(682,471)"/>
<path d="M0 0 C6 0 6 0 7.71582031 1.5378418 C8.16538086 2.25109619 8.61494141 2.96435059 9.078125 3.69921875 C9.8520459 4.88511597 9.8520459 4.88511597 10.64160156 6.0949707 C11.17237305 6.95050537 11.70314453 7.80604004 12.25 8.6875 C13.39267988 10.44736406 14.53853178 12.20517247 15.6875 13.9609375 C16.24824219 14.82557617 16.80898438 15.69021484 17.38671875 16.58105469 C19.11460226 19.17183402 20.93905632 21.64299149 22.875 24.08056641 C28.57148815 31.25579491 32.92726893 38.10908501 38 46 C38 31.15 38 16.3 38 1 C40.64 1 43.28 1 46 1 C46 22.12 46 43.24 46 65 C41 65 41 65 39.42944336 63.61743164 C38.76634155 62.64858032 38.76634155 62.64858032 38.08984375 61.66015625 C37.5808252 60.93513916 37.07180664 60.21012207 36.54736328 59.46313477 C36.0161084 58.67092529 35.48485352 57.87871582 34.9375 57.0625 C34.37530762 56.25288818 33.81311523 55.44327637 33.23388672 54.60913086 C32.06050671 52.91831488 30.89360254 51.22298818 29.73291016 49.5234375 C28.09060097 47.13193175 26.41924043 44.76510417 24.73046875 42.40625 C19.24190455 34.72970569 14.07825679 26.98011781 9 19 C8.67 33.85 8.34 48.7 8 64 C5.36 64 2.72 64 0 64 C0 42.88 0 21.76 0 0 Z M7 15 C8 17 8 17 8 17 Z " fill="#FFFFFF" transform="translate(741,471)"/>
<path d="M0 0 C2.96201511 1.2187458 4.84726033 2.63198637 7 5 C7.78375 4.360625 8.5675 3.72125 9.375 3.0625 C13.13826022 0.10565268 15.06826887 -0.17980176 19.8125 -0.25 C20.85019531 -0.27578125 21.88789063 -0.3015625 22.95703125 -0.328125 C26.51432453 0.0554599 28.22014965 0.75346559 31 3 C34.15945332 8.00254685 34.4066478 11.96512477 34.29296875 17.6796875 C34.28872391 18.49245148 34.28447906 19.30521545 34.28010559 20.14260864 C34.26340804 22.72041959 34.22577362 25.2974282 34.1875 27.875 C34.17244158 29.63019699 34.1587552 31.38540631 34.14648438 33.140625 C34.11353392 37.42738913 34.06181453 41.71355886 34 46 C31.36 46 28.72 46 26 46 C25.970271 44.43318481 25.970271 44.43318481 25.93994141 42.8347168 C25.86387886 38.9599595 25.77516272 35.08557743 25.68261719 31.21118164 C25.64433007 29.53417366 25.60947669 27.85708362 25.578125 26.17993164 C25.53246821 23.76939568 25.4744759 21.35942443 25.4140625 18.94921875 C25.40251129 18.19912033 25.39096008 17.44902191 25.37905884 16.67619324 C25.27304541 12.93872287 25.12380918 11.18571377 23 8 C19.14926935 6.98282586 16.89356138 6.62271853 13.1875 8.1875 C9.81724197 10.97999951 9.0927106 13.01383178 8.68115234 17.39160156 C8.63979883 18.72434574 8.60860735 20.05743213 8.5859375 21.390625 C8.56657135 22.09523865 8.5472052 22.79985229 8.5272522 23.52581787 C8.46767265 25.76709039 8.42115877 28.00841489 8.375 30.25 C8.33680021 31.77345938 8.29774731 33.29689762 8.2578125 34.8203125 C8.16198982 38.54668106 8.07787893 42.27320835 8 46 C5.36 46 2.72 46 0 46 C-0.01981934 45.05680908 -0.03963867 44.11361816 -0.06005859 43.1418457 C-0.13834766 39.62856966 -0.22504698 36.11570736 -0.31738281 32.6027832 C-0.35556704 31.08496022 -0.39043808 29.56704999 -0.421875 28.04907227 C-0.46775628 25.86182569 -0.52571029 23.67517418 -0.5859375 21.48828125 C-0.6173584 20.17384033 -0.6487793 18.85939941 -0.68115234 17.50512695 C-0.98312751 14.18548116 -1.42697432 11.92090834 -3 9 C-5.87594836 6.67122638 -5.87594836 6.67122638 -9.4375 7.0625 C-13.78858603 8.20752264 -14.65481207 9.22391943 -17 13 C-17.40977812 15.70002731 -17.60461388 18.00983491 -17.609375 20.70703125 C-17.62591125 21.43242599 -17.64244751 22.15782074 -17.65948486 22.90519714 C-17.70782477 25.20771873 -17.72930285 27.50958066 -17.75 29.8125 C-17.77817168 31.37959023 -17.8081008 32.94664992 -17.83984375 34.51367188 C-17.91357891 38.34239355 -17.96323821 42.17075206 -18 46 C-20.97 46 -23.94 46 -27 46 C-27 31.15 -27 16.3 -27 1 C-24.69 1 -22.38 1 -20 1 C-20 2.32 -20 3.64 -20 5 C-19.56171875 4.6390625 -19.1234375 4.278125 -18.671875 3.90625 C-12.71292619 -0.45395644 -7.25647684 -0.98480757 0 0 Z " fill="#FFFFFF" transform="translate(450,489)"/>
<path d="M0 0 C5.02485217 2.4257907 6.98003654 6.39110212 8.8125 11.375 C11.34435563 19.39254282 10.31616302 28.82675756 6.8125 36.375 C3.55813071 41.18021688 0.49278493 44.70141823 -5.1875 46.375 C-8.44921875 46.60546875 -8.44921875 46.60546875 -11.875 46.5625 C-13.58236328 46.55283203 -13.58236328 46.55283203 -15.32421875 46.54296875 C-18.1875 46.375 -18.1875 46.375 -20.1875 45.375 C-20.1875 51.315 -20.1875 57.255 -20.1875 63.375 C-23.1575 63.375 -26.1275 63.375 -29.1875 63.375 C-29.1875 42.585 -29.1875 21.795 -29.1875 0.375 C-27.2075 0.375 -25.2275 0.375 -23.1875 0.375 C-22.5275 1.365 -21.8675 2.355 -21.1875 3.375 C-19.82625 2.385 -19.82625 2.385 -18.4375 1.375 C-12.81572424 -1.82438458 -6.13523543 -1.75292441 0 0 Z M-18.1875 8.375 C-20.42197045 11.68511892 -20.42131324 14.52604912 -20.3828125 18.453125 C-20.37636719 19.61328125 -20.36992187 20.7734375 -20.36328125 21.96875 C-20.34652344 23.1753125 -20.32976562 24.381875 -20.3125 25.625 C-20.30347656 26.84703125 -20.29445313 28.0690625 -20.28515625 29.328125 C-20.26159513 32.34394782 -20.22869706 35.35937492 -20.1875 38.375 C-15.15475625 40.47818179 -11.45818478 41.14424568 -6.1875 39.375 C-2.72986654 36.56432498 -0.59266549 33.59049648 0.8125 29.375 C0.95953064 26.94051182 1.03355339 24.5012523 1.0625 22.0625 C1.08828125 20.76699219 1.1140625 19.47148437 1.140625 18.13671875 C0.79043116 14.12199652 -0.04419215 11.76313302 -2.1875 8.375 C-8.16514733 4.55948043 -12.17321306 4.71412969 -18.1875 8.375 Z " fill="#FFFFFF" transform="translate(525.1875,489.625)"/>
<path d="M0 0 C1.65 0 3.3 0 5 0 C8.00465426 7.89939902 11.00397561 15.80079298 13.99648285 23.70480061 C15.38614464 27.37476001 16.77764301 31.04400097 18.17333984 34.71166992 C19.5198311 38.25023732 20.86149601 41.79059949 22.19981384 45.33226585 C22.71162432 46.68412706 23.2251796 48.03532901 23.74049377 49.38585854 C24.46114885 51.27543083 25.17506931 53.16756749 25.88867188 55.05981445 C26.2972644 56.13681107 26.70585693 57.21380768 27.12683105 58.32344055 C28 61 28 61 28 64 C25.03 64 22.06 64 19 64 C17.02 58.72 15.04 53.44 13 48 C5.74 48 -1.52 48 -9 48 C-10.98 53.28 -12.96 58.56 -15 64 C-17.97 64 -20.94 64 -24 64 C-19.55744888 51.14275471 -14.96312149 38.35301339 -10.1730957 25.62109375 C-9.16740176 22.94655074 -8.1665477 20.27022778 -7.16601562 17.59375 C-6.5211152 15.87489422 -5.87594368 14.15614012 -5.23046875 12.4375 C-4.93464401 11.64593506 -4.63881927 10.85437012 -4.33403015 10.03881836 C-4.05646378 9.30284424 -3.7788974 8.56687012 -3.49291992 7.80859375 C-3.25200119 7.16720459 -3.01108246 6.52581543 -2.76286316 5.86499023 C-1.939967 3.85323584 -0.99422924 1.93207181 0 0 Z M2 15 C0.06582419 20.08993635 -1.8236719 25.19639435 -3.6875 30.3125 C-4.12449219 31.50488281 -4.56148437 32.69726562 -5.01171875 33.92578125 C-6.15302417 36.93781346 -6.15302417 36.93781346 -6 40 C-0.39 40 5.22 40 11 40 C9.87868377 36.58208422 8.753112 33.16567244 7.625 29.75 C7.30789063 28.78191406 6.99078125 27.81382812 6.6640625 26.81640625 C6.3546875 25.88183594 6.0453125 24.94726562 5.7265625 23.984375 C5.44377441 23.12553711 5.16098633 22.26669922 4.86962891 21.38183594 C4.05562726 19.15235809 3.10768876 17.096545 2 15 Z " fill="#FFFFFF" transform="translate(818,471)"/>
<path d="M0 0 C-0.33 2.64 -0.66 5.28 -1 8 C-2.0621875 7.89300781 -3.124375 7.78601563 -4.21875 7.67578125 C-14.98530089 6.54754227 -14.98530089 6.54754227 -25 10 C-31.04646599 15.88304799 -32.51180361 22.80715795 -33 30.93359375 C-33 38.23276792 -31.76237418 44.28515098 -27 50 C-22.65502732 54.11628991 -18.64718547 55.80021242 -12.6875 56.25 C-8.31347852 55.95345617 -4.24011156 55.07685373 0 54 C0.495 57.465 0.495 57.465 1 61 C-4.04690042 63.47101488 -8.20940428 64.52551323 -13.875 64.4375 C-14.57753906 64.42775146 -15.28007812 64.41800293 -16.00390625 64.40795898 C-24.53009452 64.11738302 -29.48323145 61.89569785 -35.375 55.8125 C-41.61637951 48.89047623 -42.54113144 40.54089924 -42.4375 31.5625 C-42.42920166 30.63671143 -42.42090332 29.71092285 -42.41235352 28.75708008 C-42.16923161 18.95866162 -39.86109179 11.84258231 -32.9453125 4.6953125 C-24.36953668 -2.77835558 -10.67759604 -2.96111421 0 0 Z " fill="#FFFFFF" transform="translate(368,472)"/>
<path d="M0 0 C4.73563141 2.53731227 7.80428645 5.99461999 9.8203125 10.921875 C12.15555811 19.45794299 12.31301631 30.65167367 8.015625 38.54296875 C5.24060375 42.31088751 2.234959 44.77845117 -2.26171875 46.27734375 C-9.64637711 46.93417486 -16.56692781 47.47087461 -22.7109375 42.83984375 C-28.89155671 36.61251961 -29.55326832 29.54377758 -29.58081055 21.14135742 C-29.44528722 13.92014983 -27.91953714 8.00331133 -22.82421875 2.77734375 C-15.88117011 -1.28687984 -7.807214 -2.49453297 0 0 Z M-17.26171875 8.27734375 C-20.89246588 14.03645988 -21.71008119 19.55190718 -21.26171875 26.27734375 C-20.09320059 31.35524251 -18.81629928 36.32302125 -14.26171875 39.27734375 C-9.9495111 40.68088885 -7.13548991 40.65652746 -2.94921875 38.83984375 C1.76830112 34.34174341 2.88475684 29.63119891 3.05078125 23.21484375 C2.84030182 17.49681931 2.08557535 13.04807314 -1.44921875 8.40234375 C-6.88512091 4.29521768 -11.73785755 4.38553245 -17.26171875 8.27734375 Z " fill="#FFFFFF" transform="translate(402.26171875,489.72265625)"/>
<path d="M0 0 C4.7031093 2.03088811 7.71789119 5.43578239 10 10 C10.46956502 14.78956317 10.0407115 18.29804567 7.38671875 22.4140625 C4.75169798 25.42763555 1.87917867 27.05586128 -2 28 C-5.34469376 28.0565938 -8.0145174 27.52679623 -11 26 C-12.3046875 24.29296875 -12.3046875 24.29296875 -13.5 22.375 C-15.80142159 19.26092955 -16.92790951 19.01114126 -20.8671875 18.40234375 C-28.19399913 18.08688156 -36.20346699 17.92803361 -42 23 C-43.83656629 25.0740533 -45.58600258 27.20178989 -47.328125 29.35546875 C-49 31 -49 31 -52.375 31.5625 C-55 31 -55 31 -56 30 C-56.37890625 27.7890625 -56.37890625 27.7890625 -56 25 C-54.36350999 22.88706353 -52.85046264 21.19544026 -50.9375 19.375 C-50.47150391 18.89804687 -50.00550781 18.42109375 -49.52539062 17.9296875 C-44.4931825 13.0001775 -39.70581783 10.87540462 -32.72265625 10.70703125 C-30.83571307 10.72675539 -28.94887613 10.76221383 -27.0625 10.8125 C-26.09248047 10.82603516 -25.12246094 10.83957031 -24.12304688 10.85351562 C-21.74810871 10.88861323 -19.37435622 10.93777725 -17 11 C-16.89558594 10.23171875 -16.79117188 9.4634375 -16.68359375 8.671875 C-15.62510222 4.53468523 -13.38829701 3.48936107 -10 1 C-6.80436932 -0.59781534 -3.4765367 -0.36841911 0 0 Z " fill="#FFFFFF" transform="translate(268,434)"/>
<path d="M0 0 C2.25 0.5625 2.25 0.5625 4.25 2.5625 C3.92405963 7.9008747 1.07680208 10.25161713 -2.625 13.76171875 C-9.33460087 19.44761214 -16.19923993 19.7161336 -24.5625 19.625 C-25.74489258 19.61823242 -25.74489258 19.61823242 -26.95117188 19.61132812 C-28.88414761 19.59961312 -30.81708393 19.58167998 -32.75 19.5625 C-33.04003906 20.34109375 -33.33007812 21.1196875 -33.62890625 21.921875 C-34.89789582 24.91085391 -36.28655895 26.47230759 -38.75 28.5625 C-42.84837332 29.92862444 -46.47419499 30.32122494 -50.75 29.5625 C-54.96569816 27.12517545 -57.8787336 24.06935288 -59.75 19.5625 C-60.29256688 14.76982589 -59.79318065 11.26828368 -57.13671875 7.1484375 C-54.50169798 4.13486445 -51.62917867 2.50663872 -47.75 1.5625 C-44.40530624 1.5059062 -41.7354826 2.03570377 -38.75 3.5625 C-37.4453125 5.26953125 -37.4453125 5.26953125 -36.25 7.1875 C-34.93128576 9.18733728 -34.93128576 9.18733728 -32.75 10.5625 C-29.81099437 10.98614045 -27.25099348 11.19936892 -24.3125 11.1875 C-23.58417969 11.18572754 -22.85585937 11.18395508 -22.10546875 11.18212891 C-16.36421733 10.96838647 -11.13970217 9.95733029 -6.9296875 5.73828125 C-6.49914062 5.12339844 -6.06859375 4.50851562 -5.625 3.875 C-3.06163522 0.62624357 -3.06163522 0.62624357 0 0 Z " fill="#FFFFFF" transform="translate(169.75,560.4375)"/>
<path d="M0 0 C2.86881619 2.21681251 4.94570731 3.88417559 5.53262329 7.63009644 C5.67841566 10.04587101 5.72799207 12.44706906 5.74609375 14.8671875 C5.76404495 15.74936951 5.78199615 16.63155151 5.80049133 17.54046631 C5.85458471 20.35245005 5.88848676 23.16426415 5.921875 25.9765625 C5.95504895 27.88544027 5.98953868 29.79429565 6.02539062 31.703125 C6.11031061 36.37748175 6.17712641 41.05178826 6.234375 45.7265625 C3.924375 45.0665625 1.614375 44.4065625 -0.765625 43.7265625 C-0.765625 42.7365625 -0.765625 41.7465625 -0.765625 40.7265625 C-1.54873047 41.26796875 -1.54873047 41.26796875 -2.34765625 41.8203125 C-8.5060538 45.70301498 -13.53531426 46.76440615 -20.765625 45.7265625 C-25.37602444 43.96087761 -27.54276231 41.08995962 -29.765625 36.7265625 C-30.44459174 32.87908431 -30.13313574 29.62492208 -28.640625 25.9765625 C-25.43429683 22.12896869 -21.70982311 19.58902193 -16.765625 18.7265625 C-14.3498344 18.65824263 -11.93227787 18.64168608 -9.515625 18.6640625 C-7.62070312 18.67759766 -7.62070312 18.67759766 -5.6875 18.69140625 C-4.72328125 18.70300781 -3.7590625 18.71460938 -2.765625 18.7265625 C-2.90657564 17.1011317 -3.05354587 15.47622199 -3.203125 13.8515625 C-3.28433594 12.94664062 -3.36554687 12.04171875 -3.44921875 11.109375 C-3.63551785 8.71545389 -3.63551785 8.71545389 -4.765625 6.7265625 C-12.14694952 5.17886542 -17.67399321 6.38035908 -24.765625 8.7265625 C-26.2262535 6.07917334 -26.765625 4.83207916 -26.765625 1.7265625 C-18.72911648 -1.65723056 -8.22194563 -3.78581112 0 0 Z M-19.765625 27.7265625 C-21.5018492 30.86512164 -22.10652738 32.49931394 -21.140625 35.9765625 C-19.41951414 38.16706723 -18.453653 38.92741904 -15.765625 39.7265625 C-11.72674417 39.43807101 -8.17600148 39.00014682 -4.765625 36.7265625 C-2.62975822 33.52276233 -2.53430325 32.70716283 -2.640625 29.0390625 C-2.66769531 27.82669922 -2.66769531 27.82669922 -2.6953125 26.58984375 C-2.71851563 25.97496094 -2.74171875 25.36007812 -2.765625 24.7265625 C-8.75191323 24.35241949 -14.58233147 24.33409058 -19.765625 27.7265625 Z " fill="#FFFFFF" transform="translate(901.765625,490.2734375)"/>
<path d="M0 0 C2.86881619 2.21681251 4.94570731 3.88417559 5.53262329 7.63009644 C5.67841566 10.04587101 5.72799207 12.44706906 5.74609375 14.8671875 C5.76404495 15.74936951 5.78199615 16.63155151 5.80049133 17.54046631 C5.85458471 20.35245005 5.88848676 23.16426415 5.921875 25.9765625 C5.95504895 27.88544027 5.98953868 29.79429565 6.02539062 31.703125 C6.11031061 36.37748175 6.17712641 41.05178826 6.234375 45.7265625 C3.924375 45.0665625 1.614375 44.4065625 -0.765625 43.7265625 C-0.765625 42.7365625 -0.765625 41.7465625 -0.765625 40.7265625 C-1.54873047 41.26796875 -1.54873047 41.26796875 -2.34765625 41.8203125 C-8.5060538 45.70301498 -13.53531426 46.76440615 -20.765625 45.7265625 C-25.37602444 43.96087761 -27.54276231 41.08995962 -29.765625 36.7265625 C-30.44459174 32.87908431 -30.13313574 29.62492208 -28.640625 25.9765625 C-25.43429683 22.12896869 -21.70982311 19.58902193 -16.765625 18.7265625 C-14.3498344 18.65824263 -11.93227787 18.64168608 -9.515625 18.6640625 C-7.62070312 18.67759766 -7.62070312 18.67759766 -5.6875 18.69140625 C-4.72328125 18.70300781 -3.7590625 18.71460938 -2.765625 18.7265625 C-2.90657564 17.1011317 -3.05354587 15.47622199 -3.203125 13.8515625 C-3.28433594 12.94664062 -3.36554687 12.04171875 -3.44921875 11.109375 C-3.63551785 8.71545389 -3.63551785 8.71545389 -4.765625 6.7265625 C-12.14694952 5.17886542 -17.67399321 6.38035908 -24.765625 8.7265625 C-26.2262535 6.07917334 -26.765625 4.83207916 -26.765625 1.7265625 C-18.72911648 -1.65723056 -8.22194563 -3.78581112 0 0 Z M-19.765625 27.7265625 C-21.5018492 30.86512164 -22.10652738 32.49931394 -21.140625 35.9765625 C-19.41951414 38.16706723 -18.453653 38.92741904 -15.765625 39.7265625 C-11.72674417 39.43807101 -8.17600148 39.00014682 -4.765625 36.7265625 C-2.62975822 33.52276233 -2.53430325 32.70716283 -2.640625 29.0390625 C-2.66769531 27.82669922 -2.66769531 27.82669922 -2.6953125 26.58984375 C-2.71851563 25.97496094 -2.74171875 25.36007812 -2.765625 24.7265625 C-8.75191323 24.35241949 -14.58233147 24.33409058 -19.765625 27.7265625 Z " fill="#FFFFFF" transform="translate(571.765625,490.2734375)"/>
<path d="M0 0 C1.12148438 -0.02578125 2.24296875 -0.0515625 3.3984375 -0.078125 C7.06402437 0.29464655 8.7796636 0.92288638 11.625 3.25 C14.78247384 8.25467437 15.03166983 12.21401765 14.91796875 17.9296875 C14.91372391 18.74245148 14.90947906 19.55521545 14.90510559 20.39260864 C14.88840804 22.97041959 14.85077362 25.5474282 14.8125 28.125 C14.79744158 29.88019699 14.7837552 31.63540631 14.77148438 33.390625 C14.73853392 37.67738913 14.68681453 41.96355886 14.625 46.25 C11.985 46.25 9.345 46.25 6.625 46.25 C6.61041748 45.27651611 6.59583496 44.30303223 6.58081055 43.30004883 C6.52266704 39.67484524 6.44543623 36.0502524 6.36254883 32.42553711 C6.32937468 30.85923199 6.30131942 29.29280949 6.27856445 27.72631836 C6.24487884 25.46938237 6.19255951 23.21351474 6.13671875 20.95703125 C6.13032883 20.26100296 6.1239389 19.56497467 6.11735535 18.84785461 C5.98776221 14.52479773 5.35890542 11.64616322 2.625 8.25 C-1.48853911 7.00817687 -3.65624992 6.97877356 -7.6875 8.5 C-10.58208249 10.13317124 -10.58208249 10.13317124 -12.375 13.25 C-12.61493655 15.78586848 -12.74753219 18.22216031 -12.7890625 20.76171875 C-12.80842865 21.48994339 -12.8277948 22.21816803 -12.8477478 22.96846008 C-12.90746376 25.29135475 -12.95389617 27.61429919 -13 29.9375 C-13.03818721 31.51369332 -13.07723938 33.08986595 -13.1171875 34.66601562 C-13.21315848 38.52717535 -13.29721849 42.38843276 -13.375 46.25 C-16.345 46.25 -19.315 46.25 -22.375 46.25 C-22.375 31.4 -22.375 16.55 -22.375 1.25 C-20.065 1.25 -17.755 1.25 -15.375 1.25 C-15.375 2.57 -15.375 3.89 -15.375 5.25 C-14.446875 4.610625 -13.51875 3.97125 -12.5625 3.3125 C-8.16787896 0.46892168 -5.14901849 0.07069591 0 0 Z " fill="#FFFFFF" transform="translate(612.375,488.75)"/>
<path d="M0 0 C2.97 0 5.94 0 9 0 C13.56514349 11.25993209 18.01587987 22.52054797 22 34 C22.19634033 33.28980713 22.39268066 32.57961426 22.5949707 31.84790039 C23.49839671 28.58542545 24.40542309 25.32396166 25.3125 22.0625 C25.7755957 20.38704102 25.7755957 20.38704102 26.24804688 18.67773438 C28.00086106 12.38605397 29.87179858 6.17505827 32 0 C34.97 0 37.94 0 41 0 C39.4264469 4.94212807 37.84520249 9.88171328 36.25756836 14.81933594 C35.72140128 16.490249 35.18714105 18.16177545 34.6550293 19.83398438 C31.77117075 28.89208313 28.77573389 37.89709569 25.41015625 46.7890625 C25.14319443 47.51298187 24.8762326 48.23690125 24.60118103 48.98275757 C22.64372302 54.0367115 20.05285645 60.47357178 15 63 C13.29297265 63.06996014 11.58331997 63.08440154 9.875 63.0625 C8.96492187 63.05347656 8.05484375 63.04445313 7.1171875 63.03515625 C6.41851563 63.02355469 5.71984375 63.01195312 5 63 C5.66 60.69 6.32 58.38 7 56 C7.7425 55.95875 8.485 55.9175 9.25 55.875 C13.17874462 54.62494489 14.08293396 52.56026551 16 49 C17.68806144 44.22395752 16.08081222 40.83662407 14.140625 36.42578125 C13.83558044 35.7019072 13.53053589 34.97803314 13.21624756 34.23222351 C12.23978208 31.92019914 11.24599872 29.61616888 10.25 27.3125 C8.95646595 24.29073536 7.67068747 21.26577609 6.390625 18.23828125 C6.08459351 17.51641632 5.77856201 16.79455139 5.46325684 16.05081177 C3.25866279 10.78543605 1.47514669 5.52079155 0 0 Z " fill="#FFFFFF" transform="translate(634,490)"/>
<path d="M0 0 C3.23601342 1.61800671 5.1930967 3.93635474 7.375 6.8125 C8.84642784 11.96249742 8.70719826 15.66137471 6.25 20.3125 C3.54851816 23.53926998 1.64416453 25.70196413 -2.5859375 26.46875 C-11.04351161 26.56351274 -11.04351161 26.56351274 -14.5625 23.6875 C-17 21 -17 21 -19 18 C-22.0564116 17.7861403 -24.99801279 18.00725383 -28.0546875 18.1875 C-31.37662553 17.97602384 -32.59759302 17.22831952 -35 15 C-34.42655063 12.13275314 -34.1385485 11.1385485 -32 9 C-28.7421875 8.8046875 -28.7421875 8.8046875 -24.875 8.875 C-22.95300781 8.90207031 -22.95300781 8.90207031 -20.9921875 8.9296875 C-19.51105469 8.96449219 -19.51105469 8.96449219 -18 9 C-17.70996094 8.22269531 -17.41992188 7.44539063 -17.12109375 6.64453125 C-13.92444736 -0.89599002 -7.30182973 -1.25265994 0 0 Z " fill="#FFFFFF" transform="translate(286,499)"/>
<path d="M0 0 C3.375 3.92151989 3.375 3.92151989 3.375 6.59765625 C4.35082031 6.56285156 5.32664062 6.52804687 6.33203125 6.4921875 C7.60433594 6.46511719 8.87664062 6.43804687 10.1875 6.41015625 C11.45207031 6.37535156 12.71664062 6.34054687 14.01953125 6.3046875 C17.375 6.59765625 17.375 6.59765625 19.32421875 7.98046875 C20.375 9.59765625 20.375 9.59765625 20.375 11.66015625 C19.375 13.59765625 19.375 13.59765625 17.17578125 14.7421875 C14.00803308 15.70974238 11.83583898 15.61703444 8.5625 15.22265625 C7.09876953 15.05636719 7.09876953 15.05636719 5.60546875 14.88671875 C4.86941406 14.79132812 4.13335937 14.6959375 3.375 14.59765625 C2.93994141 15.76361328 2.93994141 15.76361328 2.49609375 16.953125 C0.9786653 20.53256423 -0.19579835 21.70809615 -3.625 23.59765625 C-8.06037019 24.32786964 -12.49283677 24.66373787 -16.6015625 22.609375 C-19.37825786 20.40032919 -21.64889478 18.01402453 -22.625 14.59765625 C-23.09112801 9.7810002 -23.14690197 7.58554212 -20.875 3.28515625 C-18.22911727 0.12479632 -16.2600995 -1.81189115 -12.375 -3.21484375 C-7.84489794 -3.52371435 -3.53812399 -3.05333296 0 0 Z " fill="#FFFFFF" transform="translate(116.625,501.40234375)"/>
<path d="M0 0 C2.64 0 5.28 0 8 0 C8 14.85 8 29.7 8 45 C5.36 45 2.72 45 0 45 C0 30.15 0 15.3 0 0 Z " fill="#FFFFFF" transform="translate(921,490)"/>
<path d="M0 0 C1.9375 1.0625 1.9375 1.0625 3 3 C3.39281877 6.09344778 3.63008105 8.04575205 3 11 C0.46528234 13.98202078 -1.18712339 14.83065071 -5 15.625 C-8 15 -8 15 -10.9375 12.375 C-13 9 -13 9 -13.125 5.875 C-10.54083088 -0.72898776 -6.57594408 -1.82665113 0 0 Z " fill="#FFFFFF" transform="translate(139,479)"/>
<path d="M0 0 C2.99455648 2.04890706 3.83302657 3.50951555 5 6.9375 C5 10 5 10 3.4375 12.8125 C0.4866607 15.46068912 -1.05039058 16 -5 16 C-9.56521739 13.86956522 -9.56521739 13.86956522 -11 11 C-11.35519903 7.16385043 -11.54724594 4.85370366 -9.4375 1.5625 C-6.05782196 -0.60396028 -3.94016013 -0.56288002 0 0 Z " fill="#FFFFFF" transform="translate(257,531)"/>
<path d="M0 0 C2.4375 1.5625 2.4375 1.5625 4 4 C4.45746657 7.65973254 4.46134558 10.02604821 2.875 13.375 C0.25065402 15.64943318 -1.54847562 15.93096951 -5 16 C-7.89760175 14.74876288 -9.5104896 13.66751419 -11.375 11.125 C-12.20541584 8.30158614 -11.97164852 6.77613862 -11 4 C-7.91682508 -0.38759507 -5.19877088 -0.74268155 0 0 Z " fill="#FFFFFF" transform="translate(138,531)"/>
<path d="M0 0 C4.07390532 1.33327811 5.42613937 2.35369882 7.4375 6.125 C7.4375 9.75575827 6.84926127 11.54548414 4.75 14.5 C2.4375 16.125 2.4375 16.125 -0.5 16.6875 C-4.64824477 15.92557749 -6.07647551 14.48844489 -8.5625 11.125 C-9.1875 8.125 -9.1875 8.125 -8.5625 5.125 C-5.89616981 1.32749942 -4.69543738 0.16475219 0 0 Z " fill="#FFFFFF" transform="translate(254.5625,477.875)"/>
<path d="M0 0 C2.65359262 1.93640542 3.7609947 3.37858623 4.9375 6.4375 C5.01929321 9.79102143 3.98804097 11.34927871 2 14 C-0.84083641 15.42041821 -2.85477278 15.31452272 -6 15 C-8.375 13.4375 -8.375 13.4375 -10 11 C-10.56783945 7.02512383 -10.62340519 4.93510779 -8.375 1.5625 C-5.28314769 -0.47161336 -3.63632575 -0.60605429 0 0 Z " fill="#FFFFFF" transform="translate(197,397)"/>
<path d="M0 0 C2.375 1.5625 2.375 1.5625 4 4 C4.42213381 7.43737531 4.60856522 9.82090489 3 12.9375 C-0.24021772 14.65886567 -3.41957756 14.52960415 -7 14 C-9 12.9375 -9 12.9375 -10 11 C-10.50030235 7.06905293 -10.5996142 4.8994213 -8.375 1.5625 C-5.28314769 -0.47161336 -3.63632575 -0.60605429 0 0 Z " fill="#FFFFFF" transform="translate(197,613)"/>
<path d="M0 0 C2.27605184 2.12431505 2.90218604 3.44106306 3.4375 6.5 C3 9 3 9 1.4375 11.375 C-1 13 -1 13 -4.5625 13 C-8 12 -8 12 -10 10.3125 C-11.38906225 7.10029355 -11.05521374 5.3063364 -10 2 C-6.89527044 -1.5646895 -4.35928569 -1.39126139 0 0 Z " fill="#FFFFFF" transform="translate(155,465)"/>
<path d="M0 0 C2.28368427 2.65202044 3.02103853 4.11638168 2.9375 7.625 C1.77451473 10.57122936 0.79278926 11.52602789 -2 13 C-5.3141051 13.57996839 -6.55144995 13.29509872 -9.375 11.4375 C-11 9 -11 9 -11 5.4375 C-10 2 -10 2 -8.3125 0 C-5.0701741 -1.40208688 -3.32361065 -1.13144192 0 0 Z " fill="#FFFFFF" transform="translate(241,465)"/>
<path d="M0 0 C2.375 1.5625 2.375 1.5625 4 4 C4.0625 7.5625 4.0625 7.5625 3 11 C0.75 13.0625 0.75 13.0625 -2 14 C-5.094786 13.33683157 -6.60836608 12.37857946 -8.875 10.1875 C-10 8 -10 8 -9.9375 5.4375 C-8.13219506 0.74370715 -4.90840235 -0.85897041 0 0 Z " fill="#FFFFFF" transform="translate(154,547)"/>
<path d="M0 0 C3.4375 1.0625 3.4375 1.0625 5.5 3.25 C6.4375 6.0625 6.4375 6.0625 6 9.25 C4.4375 12.0625 4.4375 12.0625 1.625 13.625 C-1.5625 14.0625 -1.5625 14.0625 -4.375 13.125 C-6.5625 11.0625 -6.5625 11.0625 -7.625 7.625 C-7.5625 4.0625 -7.5625 4.0625 -6.0625 1.5625 C-3.5625 0.0625 -3.5625 0.0625 0 0 Z " fill="#FFFFFF" transform="translate(237.5625,546.9375)"/>
<path d="M0 0 C2.375 2.1875 2.375 2.1875 4 5 C3.93148663 7.87756134 3.3436338 9.427277 1.875 11.875 C0 13 0 13 -3.5625 12.875 C-7 12 -7 12 -9 9 C-8.8125 5.4375 -8.8125 5.4375 -8 2 C-4.75846834 -0.1610211 -3.76307099 -0.64247553 0 0 Z " fill="#FFFFFF" transform="translate(287,538)"/>
<path d="M0 0 C3.4375 0.25 3.4375 0.25 7 1 C9.31361802 4.47042703 9.51020728 5.91834173 9 10 C6.88310295 12.35210784 5.55958485 12.91810953 2.4375 13.375 C0 13 0 13 -1.75 11.75 C-3.22013929 9.69180499 -3.85061029 8.53962504 -4 6 C-2.85213059 3.75643706 -1.7904233 1.7904233 0 0 Z " fill="#FFFFFF" transform="translate(101,538)"/>
<path d="M0 0 C3 0.875 3 0.875 4.9375 2.625 C6 4.875 6 4.875 5.875 7.4375 C4.45098039 11.40441176 4.45098039 11.40441176 2 12.875 C-1.5625 12.75 -1.5625 12.75 -5 11.875 C-7 8.875 -7 8.875 -6.8125 5.3125 C-5.76545899 0.88271113 -4.5904638 -0.19126932 0 0 Z " fill="#FFFFFF" transform="translate(285,473.125)"/>
<path d="M0 0 C1.8125 1.1875 1.8125 1.1875 3 3 C3.4375 6 3.4375 6 3 9 C0.88310295 11.35210784 -0.44041515 11.91810953 -3.5625 12.375 C-6 12 -6 12 -7.8125 10.9375 C-9.69021039 7.87386726 -9.43729494 5.49835955 -9 2 C-6.18112246 -1.3408919 -4.01115641 -1.4399023 0 0 Z " fill="#FFFFFF" transform="translate(107,474)"/>
<path d="M0 0 C3.5 0.25 3.5 0.25 5.5 2.25 C5.75 5.25 5.75 5.25 5.5 8.25 C3.5 10.25 3.5 10.25 0 10.5 C-3.5 10.25 -3.5 10.25 -5.5 8.25 C-5.75 5.25 -5.75 5.25 -5.5 2.25 C-3.5 0.25 -3.5 0.25 0 0 Z " fill="#FFFFFF" transform="translate(858.5,525.75)"/>
<path d="M0 0 C3 0.5625 3 0.5625 5 2.25 C6 4.5625 6 4.5625 5.25 7.25 C4 9.5625 4 9.5625 3 10.5625 C0.125 10.9375 0.125 10.9375 -3 10.5625 C-4.875 8.0625 -4.875 8.0625 -6 5.5625 C-3.81911263 0.71608362 -3.81911263 0.71608362 0 0 Z " fill="#FFFFFF" transform="translate(925,470.4375)"/>
<path d="M0 0 C2.5 0.25 2.5 0.25 4.5 2.25 C4.8125 5.25 4.8125 5.25 4.5 8.25 C1.5 10.25 1.5 10.25 -1.125 9.9375 C-3.5 9.25 -3.5 9.25 -4.5 8.25 C-4.6875 5.3125 -4.6875 5.3125 -4.5 2.25 C-2.5 0.25 -2.5 0.25 0 0 Z " fill="#FFFFFF" transform="translate(240.5,419.75)"/>
<path d="M0 0 C2.5 0.25 2.5 0.25 4.5 2.25 C4.8125 5.25 4.8125 5.25 4.5 8.25 C1.5 10.25 1.5 10.25 -1.125 9.9375 C-3.5 9.25 -3.5 9.25 -4.5 8.25 C-4.6875 5.3125 -4.6875 5.3125 -4.5 2.25 C-2.5 0.25 -2.5 0.25 0 0 Z " fill="#FFFFFF" transform="translate(147.5,419.75)"/>
<path d="M0 0 C1.9375 0.75 1.9375 0.75 3.9375 2.75 C4.1875 5.25 4.1875 5.25 3.9375 7.75 C1.9375 9.75 1.9375 9.75 -0.5625 10 C-3.0625 9.75 -3.0625 9.75 -5.0625 7.75 C-5.375 4.75 -5.375 4.75 -5.0625 1.75 C-2.0625 -0.25 -2.0625 -0.25 0 0 Z " fill="#FFFFFF" transform="translate(241.0625,594.25)"/>
<path d="M0 0 C1.1446875 0.3403125 1.1446875 0.3403125 2.3125 0.6875 C2.9375 4.0625 2.9375 4.0625 3.3125 7.6875 C1.3125 9.6875 1.3125 9.6875 -1.1875 9.9375 C-3.6875 9.6875 -3.6875 9.6875 -5.6875 7.6875 C-6.05546448 4.81737704 -6.06259409 3.27975382 -4.5 0.8125 C-2.6875 -0.3125 -2.6875 -0.3125 0 0 Z " fill="#FFFFFF" transform="translate(148.6875,594.3125)"/>
</svg>
